<?xml version="1.0" encoding="UTF-8"?>
<svg id="Layer_2" xmlns="http://www.w3.org/2000/svg" viewBox="0 0 460.35 213.21">
  <defs>
    <style>
      .cls-1 {
        fill: #045650;
      }
    </style>
  </defs>
  <g id="Artwork">
    <g id="Logo_Group">
      <g>
        <path class="cls-1" d="M40.6,69.5c-3.07,1.6-6.9,2.4-11.5,2.4-3.4,0-6.82-.7-10.25-2.1-3.43-1.4-6.55-3.57-9.35-6.5-2.8-2.93-5.08-6.67-6.85-11.2-1.77-4.53-2.65-9.93-2.65-16.2s.88-11.65,2.65-16.15c1.77-4.5,4.05-8.22,6.85-11.15,2.8-2.93,5.93-5.1,9.4-6.5,3.47-1.4,6.87-2.1,10.2-2.1,1.8,0,3.37.13,4.7.4,1.33.27,2.57.63,3.7,1.1,1.13.47,2.22,1.02,3.25,1.65,1.03.63,2.15,1.35,3.35,2.15,1.27.87,2.33,1.3,3.2,1.3.47,0,.93-.18,1.4-.55.47-.37.88-.8,1.25-1.3.37-.5.67-1.05.9-1.65.23-.6.35-1.1.35-1.5h1v26.5h-1.5c0-4.4-.62-8.25-1.85-11.55-1.23-3.3-2.85-6.05-4.85-8.25-2-2.2-4.3-3.85-6.9-4.95-2.6-1.1-5.27-1.65-8-1.65s-5.12.85-7.55,2.55c-2.43,1.7-4.62,4.05-6.55,7.05-1.93,3-3.48,6.6-4.65,10.8-1.17,4.2-1.75,8.8-1.75,13.8,0,4.6.48,8.97,1.45,13.1.97,4.13,2.35,7.78,4.15,10.95,1.8,3.17,3.97,5.67,6.5,7.5,2.53,1.83,5.33,2.75,8.4,2.75,4.33,0,7.93-.77,10.8-2.3,2.87-1.53,5.18-3.33,6.95-5.4,1.77-2.07,3.07-4.13,3.9-6.2.83-2.07,1.38-3.63,1.65-4.7.2.13.43.25.7.35.27.1.47.22.6.35-.27,1.27-.83,3-1.7,5.2-.87,2.2-2.23,4.37-4.1,6.5-1.87,2.13-4.3,3.97-7.3,5.5Z"/>
        <path class="cls-1" d="M99.8,69.9c-.07.4-.13.73-.2,1h-41.1v-.7c1.27-.33,2.25-1.07,2.95-2.2.7-1.13,1.05-2.77,1.05-4.9V8.7c0-2.13-.35-3.77-1.05-4.9-.7-1.13-1.68-1.87-2.95-2.2v-.7h38.7l3,16.5c-.2.13-.4.25-.6.35-.2.1-.43.22-.7.35-.2-.8-.47-2.07-.8-3.8-.33-1.73-1-3.48-2-5.25-1-1.77-2.47-3.3-4.4-4.6-1.93-1.3-4.53-1.95-7.8-1.95h-13v30.7h10.4c1,0,1.92-.23,2.75-.7.83-.47,1.55-1.05,2.15-1.75.6-.7,1.08-1.45,1.45-2.25.37-.8.62-1.57.75-2.3h.6v15.5h-.6c-.13-.67-.38-1.4-.75-2.2-.37-.8-.85-1.55-1.45-2.25-.6-.7-1.32-1.28-2.15-1.75-.83-.47-1.75-.7-2.75-.7h-10.4v34.5h12.9c3.27,0,5.98-.7,8.15-2.1,2.17-1.4,3.92-3.08,5.25-5.05,1.33-1.97,2.33-4.03,3-6.2.67-2.17,1.17-4.02,1.5-5.55.2.13.43.25.7.35.27.1.47.22.6.35-.8,4.6-1.4,8.17-1.8,10.7l-1.4,8.1Z"/>
        <path class="cls-1" d="M107.9,70.9v-.7c1.27-.33,2.25-1.07,2.95-2.2.7-1.13,1.05-2.77,1.05-4.9V8.8c0-2.2-.35-3.87-1.05-5-.7-1.13-1.68-1.87-2.95-2.2v-.7h16.4v.7c-1.27.33-2.25,1.07-2.95,2.2-.7,1.13-1.05,2.8-1.05,5v61.1"/>
        <path class="cls-1" d="M199.1,69.9c-.07.4-.13.73-.2,1h-41.1v-.7c1.27-.33,2.25-1.07,2.95-2.2.7-1.13,1.05-2.77,1.05-4.9V8.7c0-2.13-.35-3.77-1.05-4.9-.7-1.13-1.68-1.87-2.95-2.2v-.7h38.7l3,16.5c-.2.13-.4.25-.6.35l-.7.35c-.2-.8-.47-2.07-.8-3.8-.33-1.73-1-3.48-2-5.25-1-1.77-2.47-3.3-4.4-4.6-1.93-1.3-4.53-1.95-7.8-1.95h-13v30.7h10.4c1,0,1.92-.23,2.75-.7.83-.47,1.55-1.05,2.15-1.75.6-.7,1.08-1.45,1.45-2.25.37-.8.62-1.57.75-2.3h.6v15.5h-.6c-.13-.67-.38-1.4-.75-2.2-.37-.8-.85-1.55-1.45-2.25-.6-.7-1.32-1.28-2.15-1.75-.83-.47-1.75-.7-2.75-.7h-10.4v34.5h12.9c3.27,0,5.98-.7,8.15-2.1,2.17-1.4,3.92-3.08,5.25-5.05,1.33-1.97,2.33-4.03,3-6.2.67-2.17,1.17-4.02,1.5-5.55.2.13.43.25.7.35.27.1.47.22.6.35-.8,4.6-1.4,8.17-1.8,10.7l-1.4,8.1Z"/>
        <path class="cls-1" d="M237.6,70.8c-2.13.73-4.3,1.1-6.5,1.1-2.93,0-5.42-.35-7.45-1.05-2.03-.7-3.77-1.45-5.2-2.25-1.43-.8-2.67-1.55-3.7-2.25-1.03-.7-1.98-1.05-2.85-1.05-.53,0-1.03.17-1.5.5-.47.33-.87.75-1.2,1.25-.33.5-.62,1.05-.85,1.65-.23.6-.35,1.13-.35,1.6h-1v-26.5h1.5c0,4.6.57,8.57,1.7,11.9,1.13,3.33,2.68,6.08,4.65,8.25,1.96,2.17,4.27,3.75,6.9,4.75,2.63,1,5.42,1.5,8.35,1.5,1.27,0,2.55-.27,3.85-.8,1.3-.53,2.47-1.3,3.5-2.3,1.03-1,1.87-2.18,2.5-3.55.63-1.37.95-2.88.95-4.55,0-3.4-.8-6.42-2.4-9.05-1.6-2.63-3.62-5.03-6.05-7.2-2.43-2.17-5.07-4.2-7.9-6.1-2.83-1.9-5.47-3.9-7.9-6-2.43-2.1-4.45-4.35-6.05-6.75-1.6-2.4-2.4-5.2-2.4-8.4,0-2.4.47-4.55,1.4-6.45.93-1.9,2.2-3.53,3.8-4.9,1.6-1.37,3.45-2.4,5.55-3.1,2.1-.7,4.32-1.05,6.65-1.05,2.73,0,5.02.33,6.85,1,1.83.67,3.38,1.42,4.65,2.25,1.27.83,2.3,1.58,3.1,2.25.8.67,1.57,1,2.3,1,.4,0,.82-.18,1.25-.55.43-.37.8-.8,1.1-1.3.3-.5.55-1.03.75-1.6.2-.57.3-1.05.3-1.45h1.1v26.5h-1.5c0-5.2-.6-9.53-1.8-13-1.2-3.47-2.72-6.23-4.55-8.3-1.83-2.07-3.83-3.52-6-4.35-2.17-.83-4.22-1.25-6.15-1.25-1.33,0-2.62.28-3.85.85-1.23.57-2.33,1.33-3.3,2.3-.97.97-1.73,2.07-2.3,3.3-.57,1.23-.85,2.55-.85,3.95,0,2.8.8,5.3,2.4,7.5,1.6,2.2,3.6,4.27,6,6.2,2.4,1.93,4.98,3.85,7.75,5.75,2.77,1.9,5.35,3.95,7.75,6.15,2.4,2.2,4.4,4.65,6,7.35,1.6,2.7,2.4,5.85,2.4,9.45,0,3.13-.52,5.83-1.55,8.1-1.03,2.27-2.4,4.12-4.1,5.55-1.7,1.43-3.62,2.48-5.75,3.15Z"/>
        <path class="cls-1" d="M283.8,104.71c.67,1.2,1.67,1.8,3,1.8v1l-3.81-.26-4.6-2.55c1.27-.33-5.83-1.33-5.1-2.47.73-1.13,1.1-37,1.1-39.13V2.5c-2.73,0-5.2.07-7.4.2-2.2.13-4.15.67-5.85,1.6-1.7.93-3.17,2.47-4.4,4.6-1.23,2.13-2.22,5.2-2.95,9.2-.27-.13-.5-.27-.7-.4-.2-.13-.4-.27-.6-.4.53-3,1.03-5.7,1.5-8.1.33-2.07.67-3.95,1-5.65.33-1.7.5-2.58.5-2.65h46.1c0,.07.15.93.45,2.6.3,1.67.65,3.53,1.05,5.6.4,2.4.9,5.13,1.5,8.2-.2.13-.4.27-.6.4-.2.13-.43.27-.7.4-.8-4.13-1.85-7.27-3.15-9.4-1.3-2.13-2.82-3.67-4.55-4.6-1.73-.93-3.7-1.43-5.9-1.5-2.2-.07-4.54-.1-7-.1v60.6c0,2.13.37,40.41,1.1,41.61Z"/>
        <path class="cls-1" d="M322.09,68c.67,1.13,1.63,1.87,2.9,2.2v.7h-16.4v-.7c1.27-.33,2.25-1.07,2.95-2.2.7-1.13,1.05-2.77,1.05-4.9V8.8c0-2.2-.35-3.87-1.05-5-.7-1.13-1.68-1.87-2.95-2.2v-.7h16.4v.7c-1.27.33-2.25,1.07-2.95,2.2-.7,1.13-1.05,2.8-1.05,5v54.3c0,2.13.37,3.77,1.1,4.9Z"/>
        <path class="cls-1" d="M338.09,71h-4c-1.4,0-2.65-.05-3.75-.15-1.1-.1-1.65-.32-1.65-.65,1.2-.33,2.42-.93,3.65-1.8,1.23-.87,2.28-2.57,3.15-5.1l17.6-53.3-.8-2.3c.46-.27,1.05-.7,1.75-1.3.7-.6,1.38-1.28,2.05-2.05.67-.77,1.28-1.53,1.85-2.3.57-.77.95-1.45,1.15-2.05l19.3,63.2c.33,1.2.75,2.2,1.25,3,.5.8,1.03,1.48,1.6,2.05.57.57,1.13,1.05,1.7,1.45.57.4,1.08.8,1.55,1.2h-18.8v-.7c1-.27,1.88-.73,2.65-1.4.77-.67,1.15-1.7,1.15-3.1,0-1-.17-2.18-.5-3.55-.33-1.37-.77-2.88-1.3-4.55-.53-1.67-1.12-3.42-1.75-5.25-.63-1.83-1.22-3.65-1.75-5.45h-21.4l-5.6,17c-.33,1.13-.5,1.93-.5,2.4,0,.8.13,1.4.4,1.8.27.4.6.75,1,1.05.4.3.82.57,1.25.8.43.23.82.55,1.15.95-.33,0-1.13.03-2.4.1ZM343.39,45.3h20.3c-.8-2.67-1.65-5.47-2.55-8.4-.9-2.93-1.78-5.85-2.65-8.75-.87-2.9-1.7-5.7-2.5-8.4-.8-2.7-1.53-5.15-2.2-7.35l-10.4,32.9Z"/>
        <path class="cls-1" d="M388.19,70.9v-.7c1.27-.33,2.25-1.07,2.95-2.2.7-1.13,1.05-2.77,1.05-4.9V8.8c0-2.2-.35-3.87-1.05-5-.7-1.13-1.68-1.87-2.95-2.2v-.7h16.4v.7c-1.27.33-2.25,1.07-2.95,2.2-.7,1.13-1.05,2.8-1.05,5v61.1"/>
        <path class="cls-1" d="M68.3,190.8c-2.13.73-4.3,1.1-6.5,1.1-2.93,0-5.42-.35-7.45-1.05-2.03-.7-3.77-1.45-5.2-2.25-1.43-.8-2.67-1.55-3.7-2.25-1.03-.7-1.98-1.05-2.85-1.05-.53,0-1.03.17-1.5.5-.47.33-.87.75-1.2,1.25-.33.5-.62,1.05-.85,1.65-.23.6-.35,1.13-.35,1.6h-1v-26.5h1.5c0,4.6.57,8.57,1.7,11.9,1.13,3.33,2.68,6.08,4.65,8.25,1.97,2.17,4.27,3.75,6.9,4.75,2.63,1,5.42,1.5,8.35,1.5,1.27,0,2.55-.27,3.85-.8,1.3-.53,2.47-1.3,3.5-2.3,1.03-1,1.87-2.18,2.5-3.55.63-1.37.95-2.88.95-4.55,0-3.4-.8-6.42-2.4-9.05-1.6-2.63-3.62-5.03-6.05-7.2-2.43-2.17-5.07-4.2-7.9-6.1-2.83-1.9-5.47-3.9-7.9-6-2.43-2.1-4.45-4.35-6.05-6.75s-2.4-5.2-2.4-8.4c0-2.4.47-4.55,1.4-6.45.93-1.9,2.2-3.53,3.8-4.9,1.6-1.37,3.45-2.4,5.55-3.1,2.1-.7,4.32-1.05,6.65-1.05,2.73,0,5.02.33,6.85,1,1.83.67,3.38,1.42,4.65,2.25,1.27.83,2.3,1.58,3.1,2.25.8.67,1.57,1,2.3,1,.4,0,.82-.18,1.25-.55.43-.37.8-.8,1.1-1.3.3-.5.55-1.03.75-1.6.2-.57.3-1.05.3-1.45h1.1v26.5h-1.5c0-5.2-.6-9.53-1.8-13-1.2-3.47-2.72-6.23-4.55-8.3-1.83-2.07-3.83-3.52-6-4.35-2.17-.83-4.22-1.25-6.15-1.25-1.33,0-2.62.28-3.85.85-1.23.57-2.33,1.33-3.3,2.3-.97.97-1.73,2.07-2.3,3.3-.57,1.23-.85,2.55-.85,3.95,0,2.8.8,5.3,2.4,7.5s3.6,4.27,6,6.2,4.98,3.85,7.75,5.75c2.77,1.9,5.35,3.95,7.75,6.15s4.4,4.65,6,7.35c1.6,2.7,2.4,5.85,2.4,9.45,0,3.13-.52,5.83-1.55,8.1-1.03,2.27-2.4,4.12-4.1,5.55-1.7,1.43-3.62,2.48-5.75,3.15Z"/>
        <path class="cls-1" d="M126.3,189.5c-3.07,1.6-6.9,2.4-11.5,2.4-3.4,0-6.82-.7-10.25-2.1-3.43-1.4-6.55-3.57-9.35-6.5s-5.08-6.67-6.85-11.2c-1.77-4.53-2.65-9.93-2.65-16.2s.88-11.65,2.65-16.15c1.77-4.5,4.05-8.21,6.85-11.15,2.8-2.93,5.93-5.1,9.4-6.5,3.47-1.4,6.87-2.1,10.2-2.1,1.8,0,3.37.13,4.7.4,1.33.27,2.57.63,3.7,1.1,1.13.47,2.22,1.02,3.25,1.65,1.03.63,2.15,1.35,3.35,2.15,1.27.87,2.33,1.3,3.2,1.3.47,0,.93-.18,1.4-.55.47-.37.88-.8,1.25-1.3.37-.5.67-1.05.9-1.65.23-.6.35-1.1.35-1.5h1v26.5h-1.5c0-4.4-.62-8.25-1.85-11.55-1.23-3.3-2.85-6.05-4.85-8.25-2-2.2-4.3-3.85-6.9-4.95-2.6-1.1-5.27-1.65-8-1.65s-5.12.85-7.55,2.55c-2.43,1.7-4.62,4.05-6.55,7.05-1.93,3-3.48,6.6-4.65,10.8-1.17,4.2-1.75,8.8-1.75,13.8,0,4.6.48,8.97,1.45,13.1.97,4.13,2.35,7.79,4.15,10.95,1.8,3.17,3.97,5.67,6.5,7.5,2.53,1.83,5.33,2.75,8.4,2.75,4.33,0,7.93-.77,10.8-2.3,2.87-1.53,5.18-3.33,6.95-5.4,1.77-2.07,3.07-4.13,3.9-6.2.83-2.07,1.38-3.63,1.65-4.7.2.13.43.25.7.35.27.1.47.22.6.35-.27,1.27-.83,3-1.7,5.2-.87,2.2-2.23,4.37-4.1,6.5-1.87,2.13-4.3,3.97-7.3,5.5Z"/>
        <path class="cls-1" d="M157.7,188c.67,1.13,1.63,1.87,2.9,2.2v.7h-16.4v-.7c1.27-.33,2.25-1.07,2.95-2.2.7-1.13,1.05-2.77,1.05-4.9v-54.3c0-2.2-.35-3.87-1.05-5-.7-1.13-1.68-1.87-2.95-2.2v-.7h24.3c2.8,0,5.37.42,7.7,1.25,2.33.83,4.37,2.08,6.1,3.75,1.73,1.67,3.08,3.8,4.05,6.4.96,2.6,1.45,5.63,1.45,9.1,0,3.2-.4,5.98-1.2,8.35-.8,2.37-1.9,4.35-3.3,5.95-1.4,1.6-3.07,2.85-5,3.75-1.93.9-4,1.48-6.2,1.75,2,.67,3.65,1.57,4.95,2.7,1.3,1.13,2.4,2.55,3.3,4.25s1.7,3.65,2.4,5.85c.7,2.2,1.45,4.67,2.25,7.4.73,2.2,1.72,4.13,2.95,5.8,1.23,1.67,2.52,2.67,3.85,3v.7h-18.2v-.7c.93-.27,1.73-.82,2.4-1.65.67-.83,1-1.72,1-2.65,0-.47-.07-.93-.2-1.4-.87-4.07-1.63-7.57-2.3-10.5-.67-2.93-1.4-5.32-2.2-7.15-.8-1.83-1.77-3.18-2.9-4.05-1.13-.87-2.57-1.3-4.3-1.3h-8.5v21.6c0,2.13.37,3.77,1.1,4.9ZM156.6,160.1h12.7c1,0,2.05-.32,3.15-.95,1.1-.63,2.12-1.67,3.05-3.1.93-1.43,1.72-3.35,2.35-5.75.63-2.4.95-5.37.95-8.9,0-3.73-.32-6.83-.95-9.3-.63-2.47-1.45-4.42-2.45-5.85-1-1.43-2.1-2.45-3.3-3.05-1.2-.6-2.4-.9-3.6-.9h-11.9v37.8Z"/>
        <path class="cls-1" d="M236.8,189.9c-.07.4-.13.73-.2,1h-41.1v-.7c1.27-.33,2.25-1.07,2.95-2.2.7-1.13,1.05-2.77,1.05-4.9v-54.4c0-2.13-.35-3.77-1.05-4.9-.7-1.13-1.68-1.87-2.95-2.2v-.7h38.7l3,16.5c-.2.13-.4.25-.6.35-.2.1-.43.22-.7.35-.2-.8-.47-2.07-.8-3.8-.33-1.73-1-3.48-2-5.25-1-1.77-2.47-3.3-4.4-4.6s-4.53-1.95-7.8-1.95h-13v30.7h10.4c1,0,1.92-.23,2.75-.7.83-.46,1.55-1.05,2.15-1.75.6-.7,1.08-1.45,1.45-2.25.37-.8.62-1.57.75-2.3h.6v15.5h-.6c-.13-.67-.38-1.4-.75-2.2-.37-.8-.85-1.55-1.45-2.25-.6-.7-1.32-1.28-2.15-1.75-.83-.46-1.75-.7-2.75-.7h-10.4v34.5h12.9c3.27,0,5.98-.7,8.15-2.1,2.17-1.4,3.92-3.08,5.25-5.05,1.33-1.97,2.33-4.03,3-6.2.67-2.17,1.17-4.02,1.5-5.55.2.13.43.25.7.35.27.1.47.22.6.35-.8,4.6-1.4,8.17-1.8,10.7l-1.4,8.1Z"/>
        <path class="cls-1" d="M286.2,189.9c-.07.4-.13.73-.2,1h-41.1v-.7c1.27-.33,2.25-1.07,2.95-2.2.7-1.13,1.05-2.77,1.05-4.9v-54.4c0-2.13-.35-3.77-1.05-4.9-.7-1.13-1.68-1.87-2.95-2.2v-.7h38.7l3,16.5c-.2.13-.4.25-.6.35-.2.1-.43.22-.7.35-.2-.8-.47-2.07-.8-3.8-.33-1.73-1-3.48-2-5.25-1-1.77-2.47-3.3-4.4-4.6-1.93-1.3-4.53-1.95-7.8-1.95h-13v30.7h10.4c1,0,1.92-.23,2.75-.7.83-.46,1.55-1.05,2.15-1.75.6-.7,1.08-1.45,1.45-2.25.37-.8.62-1.57.75-2.3h.6v15.5h-.6c-.13-.67-.38-1.4-.75-2.2-.37-.8-.85-1.55-1.45-2.25-.6-.7-1.32-1.28-2.15-1.75-.83-.46-1.75-.7-2.75-.7h-10.4v34.5h12.9c3.27,0,5.98-.7,8.15-2.1,2.17-1.4,3.92-3.08,5.25-5.05,1.33-1.97,2.33-4.03,3-6.2.67-2.17,1.17-4.02,1.5-5.55.2.13.43.25.7.35.27.1.46.22.6.35-.8,4.6-1.4,8.17-1.8,10.7l-1.4,8.1Z"/>
        <path class="cls-1" d="M299.69,126.6v56.4c0,2.2.37,3.87,1.1,5,.73,1.13,1.73,1.87,3,2.2v.7h-9.7v-.7c1.27-.33,2.25-1.07,2.95-2.2.7-1.13,1.05-2.8,1.05-5v-54.3c0-2.13-.35-3.77-1.05-4.9-.7-1.13-1.68-1.87-2.95-2.2v-.7h10.4l36.1,57.7v-49.9c0-2.13-.37-3.77-1.1-4.9-.73-1.13-1.7-1.87-2.9-2.2v-.7h9.6v.7c-1.27.33-2.25,1.07-2.95,2.2-.7,1.13-1.05,2.77-1.05,4.9v62.2h-2.3"/>
        <path class="cls-1" d="M382.79,190.8c-2.13.73-4.3,1.1-6.5,1.1-2.93,0-5.42-.35-7.45-1.05-2.03-.7-3.77-1.45-5.2-2.25-1.43-.8-2.67-1.55-3.7-2.25-1.03-.7-1.98-1.05-2.85-1.05-.53,0-1.03.17-1.5.5-.47.33-.87.75-1.2,1.25-.33.5-.62,1.05-.85,1.65-.23.6-.35,1.13-.35,1.6h-1v-26.5h1.5c0,4.6.57,8.57,1.7,11.9,1.13,3.33,2.68,6.08,4.65,8.25,1.96,2.17,4.27,3.75,6.9,4.75,2.63,1,5.42,1.5,8.35,1.5,1.27,0,2.55-.27,3.85-.8,1.3-.53,2.47-1.3,3.5-2.3,1.03-1,1.87-2.18,2.5-3.55.63-1.37.95-2.88.95-4.55,0-3.4-.8-6.42-2.4-9.05-1.6-2.63-3.62-5.03-6.05-7.2-2.43-2.17-5.07-4.2-7.9-6.1-2.83-1.9-5.47-3.9-7.9-6-2.43-2.1-4.45-4.35-6.05-6.75-1.6-2.4-2.4-5.2-2.4-8.4,0-2.4.47-4.55,1.4-6.45.93-1.9,2.2-3.53,3.8-4.9,1.6-1.37,3.45-2.4,5.55-3.1,2.1-.7,4.32-1.05,6.65-1.05,2.73,0,5.02.33,6.85,1,1.83.67,3.38,1.42,4.65,2.25,1.27.83,2.3,1.58,3.1,2.25.8.67,1.57,1,2.3,1,.4,0,.82-.18,1.25-.55.43-.37.8-.8,1.1-1.3.3-.5.55-1.03.75-1.6.2-.57.3-1.05.3-1.45h1.1v26.5h-1.5c0-5.2-.6-9.53-1.8-13-1.2-3.47-2.72-6.23-4.55-8.3-1.83-2.07-3.83-3.52-6-4.35-2.17-.83-4.22-1.25-6.15-1.25-1.33,0-2.62.28-3.85.85-1.23.57-2.33,1.33-3.3,2.3-.97.97-1.73,2.07-2.3,3.3-.57,1.23-.85,2.55-.85,3.95,0,2.8.8,5.3,2.4,7.5,1.6,2.2,3.6,4.27,6,6.2,2.4,1.93,4.98,3.85,7.75,5.75,2.77,1.9,5.35,3.95,7.75,6.15,2.4,2.2,4.4,4.65,6,7.35,1.6,2.7,2.4,5.85,2.4,9.45,0,3.13-.52,5.83-1.55,8.1-1.03,2.27-2.4,4.12-4.1,5.55-1.7,1.43-3.62,2.48-5.75,3.15Z"/>
      </g>
      <path class="cls-1" d="M40.69,33.37c-6.33,0-11.08,4.75-11.08,11.08,0-6.33-4.75-11.08-11.08-11.08,6.33,0,11.08-4.75,11.08-11.08,0,6.33,4.75,11.08,11.08,11.08Z"/>
      <path class="cls-1" d="M128.39,157.07c-6.33,0-11.08,4.75-11.08,11.08,0-6.33-4.75-11.08-11.08-11.08,6.33,0,11.08-4.75,11.08-11.08,0,6.33,4.75,11.08,11.08,11.08Z"/>
      <path class="cls-1" d="M244.18,117.72s8.81-15.06,23.23-15.06,22.34,12.13,26.81,18.38,47.11,72.26,49.66,75.7,11.11,16.47,36.77,16.47c14.43,0,28.09-12.64,28.09-12.64l-6.38-3.83s-9.83,15.45-23.11,15.45-26.68-14.04-38.55-33.83c-11.87-19.79-39.7-63.06-39.7-63.06,0,0-11.11-14.55-33.19-14.55s-29.74,13.28-29.74,13.28l6.13,3.7Z"/>
      <path class="cls-1" d="M107.93,70.49s16.51,21.62,38.81,21.62,33.19-12.94,33.19-12.94l-6.81-3.4s-8.34,14.81-25.02,14.81c-15.15,0-30.98-25.19-30.98-25.19l-9.19,5.11Z"/>
      <path class="cls-1" d="M388.35,70.49s16.51,21.62,38.81,21.62,33.19-12.94,33.19-12.94l-6.81-3.4s-8.34,14.81-25.02,14.81c-15.15,0-30.98-25.19-30.98-25.19l-9.19,5.11Z"/>
    </g>
  </g>
</svg>